<svg xmlns="http://www.w3.org/2000/svg" viewBox="0 0 32 32"><circle cx="16" cy="16" r="14" fill="#2AABEE"/><path d="M22 12.5c.2-.7 0-1.2-.9-1.2h-3c-.7 0-1 .4-1.2.9 0 0-1.2 3-3 4.8-.6.6-.8.7-1.1.7-.2 0-.4-.2-.4-.9v-4.4c0-.8-.2-1.1-.9-1.1h-4c-.5 0-.8.3-.8.7 0 .7 1.2.9 1.3 2.8v3.6c0 1-.2 1.2-.5 1.2-.8 0-2.6-2.8-3.7-6-.2-.7-.5-1-1.3-1H4c-.8 0-1 .4-1 .9 0 .8 1 4.8 4.6 8.3 2.4 2.3 5.1 3.4 7.6 3.4 1.5 0 1.7-.3 1.7-1v-2.3c0-.7.2-.9.7-.9.4 0 1.1.2 2.7 1.5 1.8 1.5 2.1 2.2 3.1 2.2h3c.8 0 1.2-.4 1-1.2-.2-.7-1.2-1.8-2.4-3-.7-.7-1.7-1.5-2-1.9-.3-.5-.2-.7 0-1.2 0 0 2.7-3.9 3-5.2z" fill="white"/></svg>